<?xml version="1.0" encoding="UTF-8" standalone="no"?>
<!-- Generator: Adobe Illustrator 19.0.0, SVG Export Plug-In . SVG Version: 6.00 Build 0)  -->

<svg
   xmlns:dc="http://purl.org/dc/elements/1.1/"
   xmlns:cc="http://creativecommons.org/ns#"
   xmlns:rdf="http://www.w3.org/1999/02/22-rdf-syntax-ns#"
   xmlns:svg="http://www.w3.org/2000/svg"
   xmlns="http://www.w3.org/2000/svg"
   xmlns:sodipodi="http://sodipodi.sourceforge.net/DTD/sodipodi-0.dtd"
   xmlns:inkscape="http://www.inkscape.org/namespaces/inkscape"
   version="1.1"
   id="Capa_1"
   x="0px"
   y="0px"
   viewBox="0 0 58 58"
   style="enable-background:new 0 0 58 58;"
   xml:space="preserve"
   width="512px"
   height="512px"
   sodipodi:docname="camOff.svg"
   inkscape:version="0.92.3 (2405546, 2018-03-11)"><metadata
   id="metadata45"><rdf:RDF><cc:Work
       rdf:about=""><dc:format>image/svg+xml</dc:format><dc:type
         rdf:resource="http://purl.org/dc/dcmitype/StillImage" /><dc:title></dc:title></cc:Work></rdf:RDF></metadata><defs
   id="defs43">
	
	
	
</defs><sodipodi:namedview
   pagecolor="#ffffff"
   bordercolor="#666666"
   borderopacity="1"
   objecttolerance="10"
   gridtolerance="10"
   guidetolerance="10"
   inkscape:pageopacity="0"
   inkscape:pageshadow="2"
   inkscape:window-width="1200"
   inkscape:window-height="1262"
   id="namedview41"
   showgrid="false"
   inkscape:pagecheckerboard="true"
   inkscape:zoom="0.4609375"
   inkscape:cx="256"
   inkscape:cy="256"
   inkscape:window-x="-9"
   inkscape:window-y="121"
   inkscape:window-maximized="0"
   inkscape:current-layer="Capa_1" />
<path
   style="fill:#ffffff"
   inkscape:connector-curvature="0"
   id="path2"
   d="M 54.63,10 H 3.37 C 1.512,10 0,11.512 0,13.37 V 48.63 C 0,50.488 1.512,52 3.37,52 H 54.63 C 56.488,52 58,50.488 58,48.63 V 13.37 C 58,11.512 56.488,10 54.63,10 Z M 56,48.63 C 56,49.386 55.386,50 54.63,50 H 3.37 C 2.614,50 2,49.386 2,48.63 V 13.37 C 2,12.614 2.614,12 3.37,12 h 51.26 c 0.756,0 1.37,0.614 1.37,1.37 z" /><path
   style="fill:#ffffff"
   inkscape:connector-curvature="0"
   id="path4"
   d="m 30,14 c -9.374,0 -17,7.626 -17,17 0,9.374 7.626,17 17,17 9.374,0 17,-7.626 17,-17 0,-9.374 -7.626,-17 -17,-17 z m 0,32 c -8.271,0 -15,-6.729 -15,-15 0,-8.271 6.729,-15 15,-15 8.271,0 15,6.729 15,15 0,8.271 -6.729,15 -15,15 z" /><path
   style="fill:#ffffff"
   inkscape:connector-curvature="0"
   id="path6"
   d="M 20,8 H 39 C 39.553,8 40,7.553 40,7 40,6.447 39.553,6 39,6 H 20 c -0.553,0 -1,0.447 -1,1 0,0.553 0.447,1 1,1 z" />
<g
   id="g10">
</g>
<g
   id="g12">
</g>
<g
   id="g14">
</g>
<g
   id="g16">
</g>
<g
   id="g18">
</g>
<g
   id="g20">
</g>
<g
   id="g22">
</g>
<g
   id="g24">
</g>
<g
   id="g26">
</g>
<g
   id="g28">
</g>
<g
   id="g30">
</g>
<g
   id="g32">
</g>
<g
   id="g34">
</g>
<g
   id="g36">
</g>
<g
   id="g38">
</g>
<path
   d="M 20,8 H 39 C 39.553,8 40,7.553 40,7 40,6.447 39.553,6 39,6 H 20 c -0.553,0 -1,0.447 -1,1 0,0.553 0.447,1 1,1 z"
   id="path857"
   inkscape:connector-curvature="0"
   style="fill:#ffffff" /><path
   d="M 4.3224323,55.656168 55.059034,4.4767851 C 56.535735,2.9871967 57.365696,1.4162742 56.915767,0.96241932 56.465839,0.5085644 54.908508,1.3457673 53.431806,2.8353573 L 2.6952042,54.01474 C 1.2185019,55.50433 0.38854217,57.075251 0.83847053,57.529106 1.2883989,57.982961 2.84573,57.145758 4.3224323,55.656168 Z"
   id="path857-7"
   inkscape:connector-curvature="0"
   style="fill:#ffffff;stroke-width:2.09360552" /></svg>