<?xml version="1.0" encoding="UTF-8" standalone="no"?>
<!-- Generator: Adobe Illustrator 19.0.0, SVG Export Plug-In . SVG Version: 6.00 Build 0)  -->

<svg
   xmlns:dc="http://purl.org/dc/elements/1.1/"
   xmlns:cc="http://creativecommons.org/ns#"
   xmlns:rdf="http://www.w3.org/1999/02/22-rdf-syntax-ns#"
   xmlns:svg="http://www.w3.org/2000/svg"
   xmlns="http://www.w3.org/2000/svg"
   xmlns:sodipodi="http://sodipodi.sourceforge.net/DTD/sodipodi-0.dtd"
   xmlns:inkscape="http://www.inkscape.org/namespaces/inkscape"
   version="1.1"
   id="Capa_1"
   x="0px"
   y="0px"
   viewBox="0 0 58 58"
   style="enable-background:new 0 0 58 58;"
   xml:space="preserve"
   width="512px"
   height="512px"
   sodipodi:docname="micOn.svg"
   inkscape:version="0.92.3 (2405546, 2018-03-11)"><metadata
   id="metadata43"><rdf:RDF><cc:Work
       rdf:about=""><dc:format>image/svg+xml</dc:format><dc:type
         rdf:resource="http://purl.org/dc/dcmitype/StillImage" /><dc:title></dc:title></cc:Work></rdf:RDF></metadata><defs
   id="defs41" /><sodipodi:namedview
   pagecolor="#ffffff"
   bordercolor="#666666"
   borderopacity="1"
   objecttolerance="10"
   gridtolerance="10"
   guidetolerance="10"
   inkscape:pageopacity="0"
   inkscape:pageshadow="2"
   inkscape:window-width="1200"
   inkscape:window-height="1080"
   id="namedview39"
   showgrid="false"
   inkscape:pagecheckerboard="true"
   inkscape:zoom="0.4609375"
   inkscape:cx="-210.44068"
   inkscape:cy="256"
   inkscape:window-x="-9"
   inkscape:window-y="121"
   inkscape:window-maximized="0"
   inkscape:current-layer="Capa_1" />
<g
   id="g6">
	<path
   d="M44,28c-0.552,0-1,0.447-1,1v6c0,7.72-6.28,14-14,14s-14-6.28-14-14v-6c0-0.553-0.448-1-1-1s-1,0.447-1,1v6   c0,8.485,6.644,15.429,15,15.949V56h-5c-0.552,0-1,0.447-1,1s0.448,1,1,1h12c0.552,0,1-0.447,1-1s-0.448-1-1-1h-5v-5.051   c8.356-0.52,15-7.465,15-15.949v-6C45,28.447,44.552,28,44,28z"
   fill="#FFFFFF"
   id="path2" />
	<path
   d="M29,46c6.065,0,11-4.935,11-11V11c0-6.065-4.935-11-11-11S18,4.935,18,11v24C18,41.065,22.935,46,29,46z M20,11   c0-4.963,4.038-9,9-9s9,4.037,9,9v24c0,4.963-4.038,9-9,9s-9-4.037-9-9V11z"
   fill="#FFFFFF"
   id="path4" />
</g>
<g
   id="g8">
</g>
<g
   id="g10">
</g>
<g
   id="g12">
</g>
<g
   id="g14">
</g>
<g
   id="g16">
</g>
<g
   id="g18">
</g>
<g
   id="g20">
</g>
<g
   id="g22">
</g>
<g
   id="g24">
</g>
<g
   id="g26">
</g>
<g
   id="g28">
</g>
<g
   id="g30">
</g>
<g
   id="g32">
</g>
<g
   id="g34">
</g>
<g
   id="g36">
</g>
</svg>